<!DOCTYPE svg PUBLIC "-//W3C//DTD SVG 1.1//EN" "http://www.w3.org/Graphics/SVG/1.1/DTD/svg11.dtd">
<!-- Uploaded to: SVG Repo, www.svgrepo.com, Transformed by: SVG Repo Mixer Tools -->
<svg fill="#000000" version="1.1" id="Capa_1" xmlns="http://www.w3.org/2000/svg" xmlns:xlink="http://www.w3.org/1999/xlink" width="174px" height="174px" viewBox="0 0 122.934 122.934" xml:space="preserve">
<g id="SVGRepo_bgCarrier" stroke-width="0"/>
<g id="SVGRepo_tracerCarrier" stroke-linecap="round" stroke-linejoin="round"/>
<g id="SVGRepo_iconCarrier"> <g> <g> <path d="M7.241,89.541c0.386-0.298,1.005-0.447,1.855-0.447c1.646,0,3.601,0.521,5.866,1.558l2.005-5.054 c-2.607-1.159-5.165-1.739-7.671-1.739c-2.839,0-5.07,0.623-6.694,1.873c-1.624,1.248-2.436,2.987-2.436,5.219 c0,1.192,0.19,2.225,0.572,3.1c0.381,0.87,0.966,1.645,1.756,2.318s1.975,1.369,3.554,2.088c1.746,0.783,2.82,1.304,3.223,1.558 c0.403,0.254,0.696,0.505,0.878,0.754c0.183,0.248,0.273,0.539,0.273,0.869c0,0.531-0.226,0.965-0.679,1.302 c-0.453,0.338-1.166,0.506-2.138,0.506c-1.126,0-2.364-0.181-3.711-0.539c-1.347-0.357-2.646-0.858-3.894-1.5v5.834 c1.182,0.562,2.32,0.959,3.413,1.184c1.094,0.227,2.447,0.34,4.06,0.34c1.933,0,3.618-0.322,5.053-0.969 c1.436-0.646,2.535-1.553,3.297-2.717c0.763-1.166,1.144-2.5,1.144-4.002c0-1.635-0.406-2.992-1.218-4.067 c-0.812-1.077-2.261-2.087-4.349-3.024c-2.177-0.992-3.51-1.678-4.002-2.055c-0.492-0.375-0.737-0.801-0.737-1.275 C6.661,90.21,6.854,89.839,7.241,89.541z"/> <polygon points="19.354,108.43 33.736,108.43 33.736,103.095 25.899,103.095 25.899,98.521 33.156,98.521 33.156,93.269 25.899,93.269 25.899,89.459 33.736,89.459 33.736,84.206 19.354,84.206 "/> <path d="M41.906,84.106l-7.903,24.323h7.191l1.227-4.541h7.87l1.193,4.541h7.158l-8.003-24.323H41.906z M43.779,98.521 c1.005-3.8,1.654-6.345,1.947-7.638s0.489-2.222,0.588-2.784c0.111,0.608,0.34,1.613,0.688,3.018 c0.348,1.402,0.644,2.545,0.887,3.429l1.043,3.978h-5.153V98.521z"/> <path d="M77.714,91.364c0-4.773-3.292-7.158-9.875-7.158h-7.937v24.224h6.545v-8.815h1.658l5.135,8.815h7.424l-7.059-10.556 C76.343,96.34,77.714,94.169,77.714,91.364z M67.673,94.694h-1.228v-5.535h1.293c2.242,0,3.363,0.836,3.363,2.502 C71.104,93.684,69.959,94.694,67.673,94.694z"/> <path d="M92.296,89.226c1.026,0,1.987,0.145,2.883,0.432s1.79,0.642,2.685,1.062l2.004-5.151 c-2.385-1.141-4.887-1.709-7.506-1.709c-2.396,0-4.48,0.513-6.254,1.533c-1.771,1.022-3.132,2.483-4.076,4.383 c-0.943,1.9-1.416,4.104-1.416,6.61c0,4.011,0.975,7.074,2.925,9.196c1.948,2.119,4.752,3.181,8.407,3.181 c2.553,0,4.84-0.446,6.86-1.342v-5.534c-1.017,0.42-2.026,0.78-3.032,1.077c-1.006,0.298-2.043,0.446-3.115,0.446 c-3.547,0-5.319-2.329-5.319-6.991c0-2.242,0.437-4.001,1.31-5.276C89.523,89.862,90.738,89.226,92.296,89.226z"/> <polygon points="116.355,84.206 116.355,93.186 108.75,93.186 108.75,84.206 102.173,84.206 102.173,108.43 108.75,108.43 108.75,98.555 116.355,98.555 116.355,108.43 122.934,108.43 122.934,84.206 "/> <path d="M62.378,75.606c0.194,0.029,0.389,0.043,0.579,0.043c1.927,0,3.613-1.412,3.9-3.377c0.808-5.498,1.74-9.517,2.815-12.552 v12.431c0,1.063,0.206,2.055,0.567,2.965c-0.027,0.207-0.047,0.412-0.047,0.627v5.965c5.57,0.666,8.125,3.263,9.267,5.828 c0.021-0.031,0.046-0.061,0.067-0.092v-6.342c0.185,0.008,0.369,0.022,0.556,0.022c0.036,0,0.071-0.005,0.108-0.005v5.4 c1.045-1.361,2.31-2.505,3.817-3.375c1.644-0.947,3.492-1.549,5.513-1.808v-5.365c0.612-1.134,0.967-2.416,0.967-3.821V55.687 c0.326-0.088,0.646-0.218,0.951-0.397c0.148-0.071,0.332-0.135,0.531-0.212c1.529-0.592,4.691-1.82,6.631-5.529l18.155,11.201 c0.646,0.398,1.36,0.588,2.067,0.588c1.326,0,2.619-0.666,3.363-1.877c1.146-1.854,0.569-4.287-1.285-5.431l-20.681-12.758 c-0.002-0.115-0.001-0.223-0.005-0.338c-0.08-2.18-1.906-3.883-4.092-3.798c-0.182,0.005-0.355,0.027-0.528,0.058 c0.675-1.834,1.048-3.812,1.048-5.877c0-9.455-7.691-17.146-17.146-17.146s-17.147,7.69-17.147,17.146s7.692,17.146,17.147,17.146 c4.291,0,8.216-1.587,11.226-4.2c0.29,0.431,0.667,0.81,1.129,1.109c-0.411,1.045-1.04,1.563-1.754,1.924 c-4.101,1.724-5.93,2.564-9.116,2.724l1.574,10.166l-2.451,3.357h-0.048l-2.452-3.357l1.213-10.296 c-3.718-0.184-7.539-1.125-10.348-3.215c-5.577,5.044-7.522,11.466-9.427,24.453C58.729,73.284,60.221,75.29,62.378,75.606z M79.499,44.905c-7.493,0-13.589-6.096-13.589-13.589c0-7.492,6.097-13.587,13.589-13.587c7.491,0,13.589,6.095,13.589,13.587 C93.088,38.81,86.99,44.905,79.499,44.905z"/> <path d="M81.186,28.457c-2.603,0-4.713-0.964-4.713-2.153c0-0.098,0.021-0.194,0.049-0.289c-1.898,1.079-3.183,3.118-3.183,5.458 c0,3.469,2.813,6.281,6.28,6.281c3.47,0,6.283-2.813,6.283-6.281c0-1.396-0.461-2.68-1.23-3.721 C83.808,28.185,82.568,28.457,81.186,28.457z"/> </g> </g> </g>
</svg>